<mxfile host="65bd71144e">
    <diagram id="lg9ElS4ctBy7UrwalT7M" name="Page-1">
        <mxGraphModel dx="1726" dy="1153" grid="0" gridSize="10" guides="1" tooltips="1" connect="1" arrows="1" fold="1" page="1" pageScale="1" pageWidth="827" pageHeight="1169" background="#ffffff" math="0" shadow="0">
            <root>
                <mxCell id="0"/>
                <mxCell id="1" parent="0"/>
                <mxCell id="70" value="" style="group" vertex="1" connectable="0" parent="1">
                    <mxGeometry x="169" y="250" width="776" height="470" as="geometry"/>
                </mxCell>
                <mxCell id="9" value="&lt;b&gt;Google&amp;nbsp;&lt;/b&gt;Cloud Platform" style="fillColor=#F6F6F6;strokeColor=none;shadow=0;gradientColor=none;fontSize=14;align=left;spacing=10;fontColor=#717171;9E9E9E;verticalAlign=top;spacingTop=-4;fontStyle=0;spacingLeft=40;html=1;container=0;" vertex="1" parent="70">
                    <mxGeometry width="776" height="470" as="geometry"/>
                </mxCell>
                <mxCell id="10" value="" style="shape=mxgraph.gcp2.google_cloud_platform;fillColor=#F6F6F6;strokeColor=none;shadow=0;gradientColor=none;" vertex="1" parent="70">
                    <mxGeometry x="13" y="9" width="23" height="20" as="geometry">
                        <mxPoint x="20" y="10" as="offset"/>
                    </mxGeometry>
                </mxCell>
                <mxCell id="42" value="" style="group" vertex="1" connectable="0" parent="1">
                    <mxGeometry x="176" y="376" width="533" height="208.22" as="geometry"/>
                </mxCell>
                <mxCell id="40" value="&lt;div&gt;&lt;span&gt;Global external HTTP(S) load balancer&lt;/span&gt;&lt;/div&gt;" style="strokeColor=none;shadow=0;gradientColor=none;fontSize=14;align=left;spacing=10;fontColor=#717171;9E9E9E;verticalAlign=top;spacingTop=-4;fontStyle=0;spacingLeft=0;html=1;container=0;fillColor=#ECEFF1;" vertex="1" parent="42">
                    <mxGeometry x="39" y="3.22" width="450.71" height="205" as="geometry"/>
                </mxCell>
                <mxCell id="66" value="" style="rounded=0;whiteSpace=wrap;html=1;shadow=1;fontColor=#6B6D6E;fillColor=none;gradientColor=none;" vertex="1" parent="42">
                    <mxGeometry x="245.0024772313297" y="68.16" width="131.26593806921676" height="58.42" as="geometry"/>
                </mxCell>
                <mxCell id="65" value="" style="edgeStyle=orthogonalEdgeStyle;fontSize=12;html=1;endArrow=blockThin;endFill=1;rounded=0;strokeWidth=2;endSize=4;startSize=4;dashed=0;strokeColor=#4284F3;fontColor=#6B6D6E;" edge="1" parent="42" source="45" target="66">
                    <mxGeometry width="100" relative="1" as="geometry">
                        <mxPoint x="173.8142076502732" y="102.07999999999993" as="sourcePoint"/>
                        <mxPoint x="200.9726775956284" y="97" as="targetPoint"/>
                    </mxGeometry>
                </mxCell>
                <mxCell id="67" value="Host &amp;amp; path rules" style="dashed=0;connectable=0;html=1;fillColor=#5184F3;strokeColor=none;shape=mxgraph.gcp2.hexIcon;prIcon=cloud_load_balancing;part=1;labelPosition=right;verticalLabelPosition=middle;align=left;verticalAlign=middle;spacingLeft=5;fontColor=#999999;fontSize=12;" vertex="1" parent="42">
                    <mxGeometry x="244.99832422586525" y="71" width="30.77959927140255" height="29" as="geometry"/>
                </mxCell>
                <mxCell id="50" value="" style="group;" vertex="1" connectable="0" parent="42">
                    <mxGeometry x="77" y="67.16" width="146" height="78.28" as="geometry"/>
                </mxCell>
                <mxCell id="45" value="" style="strokeColor=#dddddd;shadow=1;strokeWidth=1;rounded=1;absoluteArcSize=1;arcSize=2;fontColor=#000000;fillColor=#ECEFF1;align=left;verticalAlign=top;" vertex="1" parent="50">
                    <mxGeometry width="124.92595274139407" height="60" as="geometry"/>
                </mxCell>
                <mxCell id="46" value="Cloud Load&#10;Balancing" style="dashed=0;connectable=0;html=1;fillColor=#5184F3;strokeColor=none;shape=mxgraph.gcp2.hexIcon;prIcon=cloud_load_balancing;part=1;labelPosition=right;verticalLabelPosition=middle;align=left;verticalAlign=middle;spacingLeft=5;fontColor=#999999;fontSize=12;" vertex="1" parent="45">
                    <mxGeometry y="0.5" width="44" height="39" relative="1" as="geometry">
                        <mxPoint x="5" y="-19.5" as="offset"/>
                    </mxGeometry>
                </mxCell>
                <mxCell id="39" value="&lt;span style=&quot;font-weight: normal&quot;&gt;Google managed&lt;br&gt;&amp;nbsp;SSL Cert&lt;/span&gt;" style="html=1;fillColor=#5184F3;strokeColor=none;verticalAlign=top;labelPosition=center;verticalLabelPosition=bottom;align=center;spacingTop=-6;fontSize=11;fontStyle=1;fontColor=#999999;shape=mxgraph.gcp2.hexIcon;prIcon=placeholder;rounded=1;shadow=1;aspect=fixed;" vertex="1" parent="50">
                    <mxGeometry x="108.58948199828868" y="43.78" width="35.24264116575591" height="31.232240437158467" as="geometry"/>
                </mxCell>
                <mxCell id="49" style="edgeStyle=none;html=1;fontColor=#000000;" edge="1" parent="50" source="39" target="39">
                    <mxGeometry relative="1" as="geometry"/>
                </mxCell>
                <mxCell id="55" value="&lt;span style=&quot;color: rgb(153 , 153 , 153) ; text-align: left&quot;&gt;np.itsbenjaminhuang.com&lt;/span&gt;" style="text;html=1;strokeColor=none;fillColor=none;align=center;verticalAlign=middle;whiteSpace=wrap;rounded=0;shadow=1;fontColor=#000000;" vertex="1" parent="42">
                    <mxGeometry x="347" y="162" width="186" height="20" as="geometry"/>
                </mxCell>
                <mxCell id="32" value="Asia multi-region" style="strokeColor=none;shadow=0;gradientColor=none;fontSize=14;align=left;spacing=10;fontColor=#717171;9E9E9E;verticalAlign=top;spacingTop=-4;fontStyle=0;spacingLeft=0;html=1;container=0;fillColor=#ECEFF1;" vertex="1" parent="1">
                    <mxGeometry x="686" y="323" width="224" height="332" as="geometry"/>
                </mxCell>
                <mxCell id="11" value="Architecture: Websites &amp;gt; Content Hosting" style="fillColor=#4DA1F5;strokeColor=none;shadow=1;gradientColor=none;fontSize=14;align=left;spacingLeft=50;fontColor=#ffffff;html=1;" vertex="1" parent="1">
                    <mxGeometry x="20" y="186" width="1531" height="40" as="geometry"/>
                </mxCell>
                <mxCell id="2" value="" style="strokeColor=#dddddd;shadow=1;strokeWidth=1;rounded=1;absoluteArcSize=1;arcSize=2;fillColor=none;" vertex="1" parent="1">
                    <mxGeometry x="698" y="412" width="200" height="60" as="geometry"/>
                </mxCell>
                <mxCell id="3" value="&lt;font color=&quot;#000000&quot;&gt;itsbenjaminhuang.com&lt;/font&gt;&lt;br&gt;Cloud Storage" style="dashed=0;connectable=0;html=1;fillColor=#5184F3;strokeColor=none;shape=mxgraph.gcp2.hexIcon;prIcon=cloud_storage;part=1;labelPosition=right;verticalLabelPosition=middle;align=left;verticalAlign=middle;spacingLeft=5;fontColor=#999999;fontSize=12;" vertex="1" parent="2">
                    <mxGeometry y="0.5" width="44" height="39" relative="1" as="geometry">
                        <mxPoint x="5" y="-19.5" as="offset"/>
                    </mxGeometry>
                </mxCell>
                <mxCell id="35" value="Desktop" style="strokeColor=#dddddd;shadow=1;strokeWidth=1;rounded=1;absoluteArcSize=1;arcSize=2;labelPosition=center;verticalLabelPosition=middle;align=center;verticalAlign=bottom;spacingLeft=0;fontColor=#999999;fontSize=12;whiteSpace=wrap;spacingBottom=2;fillColor=#ECEFF1;" vertex="1" parent="1">
                    <mxGeometry x="42" y="430.65999999999997" width="70" height="85" as="geometry"/>
                </mxCell>
                <mxCell id="36" value="" style="dashed=0;connectable=0;html=1;fillColor=#757575;strokeColor=none;shape=mxgraph.gcp2.desktop;part=1;" vertex="1" parent="35">
                    <mxGeometry x="0.5" width="50" height="45" relative="1" as="geometry">
                        <mxPoint x="-25" y="12.5" as="offset"/>
                    </mxGeometry>
                </mxCell>
                <mxCell id="61" value="" style="strokeColor=#dddddd;shadow=1;strokeWidth=1;rounded=1;absoluteArcSize=1;arcSize=2;fillColor=none;" vertex="1" parent="1">
                    <mxGeometry x="699" y="505" width="199" height="60" as="geometry"/>
                </mxCell>
                <mxCell id="62" value="&lt;font color=&quot;#000000&quot;&gt;np.itsbenjaminhuang.com&lt;/font&gt;&lt;br&gt;Cloud Storage" style="dashed=0;connectable=0;html=1;fillColor=#5184F3;strokeColor=none;shape=mxgraph.gcp2.hexIcon;prIcon=cloud_storage;part=1;labelPosition=right;verticalLabelPosition=middle;align=left;verticalAlign=middle;spacingLeft=5;fontColor=#999999;fontSize=12;" vertex="1" parent="61">
                    <mxGeometry y="0.5" width="44" height="39" relative="1" as="geometry">
                        <mxPoint x="5" y="-19.5" as="offset"/>
                    </mxGeometry>
                </mxCell>
                <mxCell id="64" value="" style="edgeStyle=orthogonalEdgeStyle;fontSize=12;html=1;endArrow=blockThin;endFill=1;rounded=0;strokeWidth=2;endSize=4;startSize=4;dashed=0;strokeColor=#4284F3;fontColor=#6B6D6E;entryX=0;entryY=0.5;entryDx=0;entryDy=0;" edge="1" parent="1" source="35" target="45">
                    <mxGeometry width="100" relative="1" as="geometry">
                        <mxPoint x="-215" y="491" as="sourcePoint"/>
                        <mxPoint x="-115" y="491" as="targetPoint"/>
                    </mxGeometry>
                </mxCell>
                <mxCell id="68" value="" style="edgeStyle=orthogonalEdgeStyle;fontSize=12;html=1;endArrow=blockThin;endFill=1;rounded=0;strokeWidth=2;endSize=4;startSize=4;dashed=0;strokeColor=#4284F3;fontColor=#6B6D6E;entryX=0;entryY=0.5;entryDx=0;entryDy=0;exitX=1;exitY=0.5;exitDx=0;exitDy=0;" edge="1" parent="1" source="66" target="2">
                    <mxGeometry width="100" relative="1" as="geometry">
                        <mxPoint x="521" y="457.99999999999994" as="sourcePoint"/>
                        <mxPoint x="615" y="457.99999999999994" as="targetPoint"/>
                        <Array as="points">
                            <mxPoint x="611" y="473"/>
                            <mxPoint x="611" y="442"/>
                        </Array>
                    </mxGeometry>
                </mxCell>
                <mxCell id="60" value="&lt;span style=&quot;color: rgb(153 , 153 , 153) ; text-align: left&quot;&gt;itsbenjaminhuang.com&lt;/span&gt;" style="text;html=1;strokeColor=none;fillColor=none;align=center;verticalAlign=middle;whiteSpace=wrap;rounded=0;shadow=1;fontColor=#000000;" vertex="1" parent="1">
                    <mxGeometry x="529" y="422" width="186" height="20" as="geometry"/>
                </mxCell>
                <mxCell id="69" value="" style="edgeStyle=orthogonalEdgeStyle;fontSize=12;html=1;endArrow=blockThin;endFill=1;rounded=0;strokeWidth=2;endSize=4;startSize=4;dashed=0;strokeColor=#4284F3;fontColor=#6B6D6E;entryX=0;entryY=0.5;entryDx=0;entryDy=0;" edge="1" parent="1" source="66" target="61">
                    <mxGeometry width="100" relative="1" as="geometry">
                        <mxPoint x="437" y="483.37" as="sourcePoint"/>
                        <mxPoint x="708" y="452" as="targetPoint"/>
                        <Array as="points">
                            <mxPoint x="611" y="484"/>
                            <mxPoint x="611" y="535"/>
                        </Array>
                    </mxGeometry>
                </mxCell>
                <mxCell id="75" value="Users" style="strokeColor=#dddddd;shadow=1;strokeWidth=1;rounded=1;absoluteArcSize=1;arcSize=2;labelPosition=center;verticalLabelPosition=middle;align=center;verticalAlign=bottom;spacingLeft=0;fontColor=#999999;fontSize=12;whiteSpace=wrap;spacingBottom=2;fillColor=none;gradientColor=none;html=1;" vertex="1" parent="1">
                    <mxGeometry x="42" y="814" width="70" height="85" as="geometry"/>
                </mxCell>
                <mxCell id="76" value="" style="dashed=0;connectable=0;html=1;fillColor=#757575;strokeColor=none;shape=mxgraph.gcp2.users;part=1;" vertex="1" parent="75">
                    <mxGeometry x="0.5" width="50" height="31.5" relative="1" as="geometry">
                        <mxPoint x="-25" y="19.25" as="offset"/>
                    </mxGeometry>
                </mxCell>
                <mxCell id="80" value="&lt;span style=&quot;color: rgb(153 , 153 , 153) ; text-align: left&quot;&gt;Code change&lt;/span&gt;" style="text;html=1;strokeColor=none;fillColor=none;align=center;verticalAlign=middle;whiteSpace=wrap;rounded=0;shadow=1;fontColor=#000000;" vertex="1" parent="1">
                    <mxGeometry x="138" y="831" width="186" height="20" as="geometry"/>
                </mxCell>
                <mxCell id="81" value="Local-Compute" style="strokeColor=#dddddd;shadow=1;strokeWidth=1;rounded=1;absoluteArcSize=1;arcSize=2;labelPosition=center;verticalLabelPosition=middle;align=center;verticalAlign=bottom;spacingLeft=0;fontColor=#999999;fontSize=12;whiteSpace=wrap;spacingBottom=2;fillColor=none;gradientColor=none;html=1;" vertex="1" parent="1">
                    <mxGeometry x="956.9999999999995" y="610" width="70" height="100" as="geometry"/>
                </mxCell>
                <mxCell id="82" value="" style="dashed=0;connectable=0;html=1;fillColor=#757575;strokeColor=none;shape=mxgraph.gcp2.compute_engine_icon;part=1;" vertex="1" parent="81">
                    <mxGeometry x="0.5" width="50" height="44.5" relative="1" as="geometry">
                        <mxPoint x="-25" y="12.75" as="offset"/>
                    </mxGeometry>
                </mxCell>
                <mxCell id="84" value="" style="edgeStyle=orthogonalEdgeStyle;fontSize=12;html=1;endArrow=blockThin;endFill=1;rounded=0;strokeWidth=2;endSize=4;startSize=4;dashed=1;dashPattern=1 3;strokeColor=#4284F3;fontColor=#6B6D6E;exitX=0.5;exitY=0;exitDx=0;exitDy=0;entryX=0.5;entryY=1;entryDx=0;entryDy=0;" edge="1" parent="1" source="81" target="61">
                    <mxGeometry width="100" relative="1" as="geometry">
                        <mxPoint x="380" y="899" as="sourcePoint"/>
                        <mxPoint x="956.9999999999995" y="800" as="targetPoint"/>
                    </mxGeometry>
                </mxCell>
                <mxCell id="85" value="" style="edgeStyle=orthogonalEdgeStyle;fontSize=12;html=1;endArrow=blockThin;endFill=1;rounded=0;strokeWidth=2;endSize=4;startSize=4;dashed=1;dashPattern=1 3;strokeColor=#4284F3;fontColor=#6B6D6E;exitX=0.5;exitY=0;exitDx=0;exitDy=0;" edge="1" parent="1" source="81" target="2">
                    <mxGeometry width="100" relative="1" as="geometry">
                        <mxPoint x="991.9999999999995" y="750" as="sourcePoint"/>
                        <mxPoint x="908" y="531" as="targetPoint"/>
                        <Array as="points">
                            <mxPoint x="993" y="610"/>
                            <mxPoint x="993" y="492"/>
                            <mxPoint x="798" y="492"/>
                        </Array>
                    </mxGeometry>
                </mxCell>
                <mxCell id="90" value="" style="edgeStyle=orthogonalEdgeStyle;fontSize=12;html=1;endArrow=blockThin;endFill=1;rounded=0;strokeWidth=2;endSize=4;startSize=4;dashed=0;strokeColor=#4284F3;fontColor=#6B6D6E;" edge="1" parent="1" source="78" target="61">
                    <mxGeometry width="100" relative="1" as="geometry">
                        <mxPoint x="1196.6354462659388" y="626" as="sourcePoint"/>
                        <mxPoint x="1196.6354462659388" y="567.4200000000001" as="targetPoint"/>
                    </mxGeometry>
                </mxCell>
                <mxCell id="91" value="" style="edgeStyle=orthogonalEdgeStyle;fontSize=12;html=1;endArrow=blockThin;endFill=1;rounded=0;strokeWidth=2;endSize=4;startSize=4;dashed=0;strokeColor=#4284F3;fontColor=#6B6D6E;entryX=1;entryY=0.5;entryDx=0;entryDy=0;exitX=0;exitY=0.5;exitDx=0;exitDy=0;" edge="1" parent="1" source="78" target="2">
                    <mxGeometry width="100" relative="1" as="geometry">
                        <mxPoint x="1130.00247723133" y="494.16666666666674" as="sourcePoint"/>
                        <mxPoint x="908" y="545" as="targetPoint"/>
                    </mxGeometry>
                </mxCell>
                <mxCell id="87" value="" style="group" vertex="1" connectable="0" parent="1">
                    <mxGeometry x="1092" y="264" width="436.83" height="472" as="geometry"/>
                </mxCell>
                <mxCell id="72" value="&lt;span style=&quot;font-size: 14px;&quot;&gt;&lt;font style=&quot;font-size: 14px;&quot; color=&quot;#717171&quot;&gt;Github&lt;/font&gt;&lt;/span&gt;" style="points=[[0,0,0],[0.25,0,0],[0.5,0,0],[0.75,0,0],[1,0,0],[1,0.25,0],[1,0.5,0],[1,0.75,0],[1,1,0],[0.75,1,0],[0.5,1,0],[0.25,1,0],[0,1,0],[0,0.75,0],[0,0.5,0],[0,0.25,0]];rounded=1;absoluteArcSize=1;arcSize=2;html=1;strokeColor=none;gradientColor=none;shadow=0;dashed=0;fontSize=14;fontColor=#9E9E9E;align=left;verticalAlign=top;spacing=56;spacingTop=-45;fillColor=#E0F2F1;fontStyle=0" vertex="1" parent="87">
                    <mxGeometry x="3" width="433.83" height="461" as="geometry"/>
                </mxCell>
                <mxCell id="71" value="" style="dashed=0;outlineConnect=0;html=1;align=center;labelPosition=center;verticalLabelPosition=bottom;verticalAlign=top;shape=mxgraph.weblogos.github;rounded=0;shadow=1;fontColor=#6B6D6E;fillColor=none;gradientColor=none;aspect=fixed;" vertex="1" parent="87">
                    <mxGeometry x="11.829999999999927" y="4" width="35" height="35" as="geometry"/>
                </mxCell>
                <mxCell id="86" value="benjaminhuang repo" style="rounded=0;whiteSpace=wrap;html=1;shadow=1;fontColor=#6B6D6E;fillColor=none;gradientColor=none;" vertex="1" parent="87">
                    <mxGeometry x="208.00247723132975" y="366.7899999999999" width="131.26593806921676" height="58.42" as="geometry"/>
                </mxCell>
                <mxCell id="78" value="Github Actions&lt;br&gt;(2000 min/mth limit)" style="rounded=0;whiteSpace=wrap;html=1;shadow=1;fontColor=#6B6D6E;fillColor=none;gradientColor=none;" vertex="1" parent="87">
                    <mxGeometry x="28.00247723132975" y="190.9999999999999" width="131.26593806921676" height="58.42" as="geometry"/>
                </mxCell>
                <mxCell id="89" value="" style="edgeStyle=orthogonalEdgeStyle;fontSize=12;html=1;endArrow=blockThin;endFill=1;rounded=0;strokeWidth=2;endSize=4;startSize=4;dashed=0;strokeColor=#4284F3;fontColor=#6B6D6E;" edge="1" parent="87" source="86" target="78">
                    <mxGeometry width="100" relative="1" as="geometry">
                        <mxPoint x="131" y="580" as="sourcePoint"/>
                        <mxPoint x="103.65517241379325" y="434.4200000000001" as="targetPoint"/>
                    </mxGeometry>
                </mxCell>
                <mxCell id="92" value="&lt;font style=&quot;font-size: 80px&quot;&gt;WIP&lt;/font&gt;" style="rounded=0;whiteSpace=wrap;html=1;shadow=1;fontSize=14;align=center;verticalAlign=middle;spacing=60;fillColor=#FF9999;opacity=30;fontColor=#000000;" vertex="1" parent="87">
                    <mxGeometry x="-169" y="141" width="356.17" height="331" as="geometry"/>
                </mxCell>
                <mxCell id="77" value="" style="edgeStyle=orthogonalEdgeStyle;fontSize=12;html=1;endArrow=blockThin;endFill=1;rounded=0;strokeWidth=2;endSize=4;startSize=4;dashed=0;strokeColor=#4284F3;fontColor=#6B6D6E;" edge="1" parent="1" source="75" target="86">
                    <mxGeometry width="100" relative="1" as="geometry">
                        <mxPoint x="122" y="483.1600000000001" as="sourcePoint"/>
                        <mxPoint x="582" y="940" as="targetPoint"/>
                    </mxGeometry>
                </mxCell>
                <mxCell id="88" value="" style="edgeStyle=orthogonalEdgeStyle;fontSize=12;html=1;endArrow=blockThin;endFill=1;rounded=0;strokeWidth=2;endSize=4;startSize=4;dashed=1;dashPattern=1 3;strokeColor=#4284F3;fontColor=#6B6D6E;exitX=0;exitY=0.5;exitDx=0;exitDy=0;" edge="1" parent="1" source="86" target="81">
                    <mxGeometry width="100" relative="1" as="geometry">
                        <mxPoint x="1000.9999999999995" y="553" as="sourcePoint"/>
                        <mxPoint x="908.0000000000002" y="531" as="targetPoint"/>
                    </mxGeometry>
                </mxCell>
            </root>
        </mxGraphModel>
    </diagram>
</mxfile>